HIERARCHY
ROOT Hips
{
	OFFSET 55.310501 45.591206 43.872097
	CHANNELS 6 Xposition Yposition Zposition Zrotation Xrotation Yrotation
	JOINT Chest
	{
		OFFSET -0.153500 1.163101 7.852402
		CHANNELS 6 Xposition Yposition Zposition Zrotation Xrotation Yrotation
		JOINT Chest2
		{
			OFFSET 0.000000 0.000000 3.343300
			CHANNELS 6 Xposition Yposition Zposition Zrotation Xrotation Yrotation
			JOINT Neck
			{
				OFFSET 0.000000 0.000000 7.785500
				CHANNELS 6 Xposition Yposition Zposition Zrotation Xrotation Yrotation
				JOINT Head
				{
					OFFSET 0.000000 0.000000 2.173901
					CHANNELS 6 Xposition Yposition Zposition Zrotation Xrotation Yrotation
					End Site
					{
						OFFSET 0.000000 0.000000 10.528198
					}
				}
			}
			JOINT LeftCollar
			{
				OFFSET 2.676300 -1.652401 4.938301
				CHANNELS 6 Xposition Yposition Zposition Zrotation Xrotation Yrotation
				JOINT LeftShoulder
				{
					OFFSET 4.299000 0.000000 0.000000
					CHANNELS 6 Xposition Yposition Zposition Zrotation Xrotation Yrotation
					JOINT LeftElbow
					{
						OFFSET 0.000000 0.000000 -10.245102
						CHANNELS 6 Xposition Yposition Zposition Zrotation Xrotation Yrotation
						JOINT LeftWrist
						{
							OFFSET 0.000000 0.000000 -12.703300
							CHANNELS 6 Xposition Yposition Zposition Zrotation Xrotation Yrotation
							End Site
							{
								OFFSET 0.000000 0.000000 -2.173901
							}
						}
					}
				}
			}
			JOINT RightCollar
			{
				OFFSET -2.534599 -1.686401 5.195000
				CHANNELS 6 Xposition Yposition Zposition Zrotation Xrotation Yrotation
				JOINT RightShoulder
				{
					OFFSET -4.144100 0.000000 0.000000
					CHANNELS 6 Xposition Yposition Zposition Zrotation Xrotation Yrotation
					JOINT RightElbow
					{
						OFFSET 0.000000 0.000000 -10.116501
						CHANNELS 6 Xposition Yposition Zposition Zrotation Xrotation Yrotation
						JOINT RightWrist
						{
							OFFSET 0.000000 0.000000 -12.937801
							CHANNELS 6 Xposition Yposition Zposition Zrotation Xrotation Yrotation
							End Site
							{
								OFFSET 0.000000 0.000000 -2.173901
							}
						}
					}
				}
			}
		}
	}
	JOINT LeftHip
	{
		OFFSET 2.175598 0.064499 -2.662899
		CHANNELS 6 Xposition Yposition Zposition Zrotation Xrotation Yrotation
		JOINT LeftKnee
		{
			OFFSET 0.000000 -0.000004 -18.585800
			CHANNELS 6 Xposition Yposition Zposition Zrotation Xrotation Yrotation
			JOINT LeftAnkle
			{
				OFFSET 0.000000 0.000000 -18.979500
				CHANNELS 6 Xposition Yposition Zposition Zrotation Xrotation Yrotation
				End Site
				{
					OFFSET 0.000000 -9.264000 0.000000
				}
			}
		}
	}
	JOINT RightHip
	{
		OFFSET -2.092400 -0.058102 -2.581200
		CHANNELS 6 Xposition Yposition Zposition Zrotation Xrotation Yrotation
		JOINT RightKnee
		{
			OFFSET 0.000000 -0.000004 -18.665001
			CHANNELS 6 Xposition Yposition Zposition Zrotation Xrotation Yrotation
			JOINT RightAnkle
			{
				OFFSET 0.000000 0.000000 -18.566601
				CHANNELS 6 Xposition Yposition Zposition Zrotation Xrotation Yrotation
				End Site
				{
					OFFSET 0.000000 -8.497601 0.000000
				}
			}
		}
	}
}
MOTION
Frames: 10
Frame Time: 0.041667
46.798904 61.701401 45.041397 714.437241 4.172265 -8.604167 -0.153501 1.163107 7.852398 6.066449 -3.810909 -8.857398 0.000001 0.000008 3.343312 -2.057619 -5.946560 -0.197336 0.000008 0.000002 7.785498 -41.797732 -0.397064 21.025621 -0.000001 0.000008 2.173907 -5.965665 -4.926809 -6.059373 2.676302 -1.652399 4.938296 25.287527 -13.207922 -14.997968 4.299004 -0.000002 -0.000002 -61.227202 -9.676259 -137.467474 -0.000011 0.000005 -10.245103 209.842577 198.495365 181.439741 0.000005 -0.000004 -12.703308 326.018699 166.297129 185.358821 -2.534593 -1.686402 5.194996 -2.642676 3.618498 12.287776 -4.144098 0.000010 0.000004 56.600258 -28.493744 150.128787 0.000000 0.000005 -10.116498 -58.767993 -7.305640 -7.057587 0.000002 0.000011 -12.937796 42.542024 -8.185665 -9.200632 2.175598 0.064504 -2.662905 -374.305240 -4.898554 12.110843 -0.000005 -0.000003 -18.585804 203.739939 -191.865300 -168.511381 -0.000014 0.000002 -18.979504 348.206678 16.484829 -16.678340 -2.092388 -0.058106 -2.581199 198.039887 -3.088558 -115.317991 0.000004 -0.000003 -18.665005 -890.854361 15.875101 -98.621177 -0.000006 -0.000000 -18.566599 669.784305 -10.319426 -48.897338
46.789703 61.695198 45.040596 714.461119 4.245479 -8.618249 -0.153502 1.163096 7.852404 6.055669 -3.881313 -8.843757 0.000006 -0.000001 3.343305 -2.021070 -5.883429 -0.199694 0.000002 0.000003 7.785493 -41.701184 -0.320706 20.980603 0.000009 -0.000005 2.173903 -5.999904 -4.965475 -6.050143 2.676291 -1.652406 4.938293 25.321029 -13.340082 -15.070923 4.299013 -0.000004 0.000012 -61.334580 -9.611943 -137.419622 -0.000007 0.000002 -10.245103 210.116385 198.379921 181.540527 0.000001 -0.000011 -12.703301 325.762567 166.335119 184.824550 -2.534601 -1.686402 5.194993 -2.565382 3.617015 12.310982 -4.144100 0.000001 0.000006 56.077441 -28.434124 149.908855 0.000005 -0.000006 -10.116499 -58.933563 -7.404569 -6.994708 0.000003 0.000001 -12.937801 42.223632 -8.192108 -9.206415 2.175597 0.064495 -2.662898 -374.272647 -4.942809 12.110877 -0.000002 0.000003 -18.585800 203.608281 -191.826792 -168.487735 -0.000006 -0.000009 -18.979500 348.338008 16.462528 -16.691381 -2.092389 -0.058101 -2.581199 198.172980 -3.078363 -115.353357 0.000005 -0.000006 -18.665007 -890.812341 16.090869 -98.610241 -0.000004 -0.000010 -18.566607 669.960524 -10.256932 -48.700649
46.779400 61.688999 45.037598 714.450792 4.309449 -8.598407 -0.153508 1.163103 7.852401 6.073394 -3.951614 -8.892024 -0.000003 0.000005 3.343309 -1.978096 -5.808848 -0.203567 -0.000011 -0.000007 7.785508 -41.608700 -0.264013 20.967100 -0.000001 0.000010 2.173911 -6.081027 -5.000430 -6.014966 2.676291 -1.652411 4.938304 25.267055 -13.386596 -15.157942 4.299001 0.000010 -0.000003 -61.372767 -9.647717 -137.265437 -0.000001 -0.000010 -10.245108 210.302686 198.341850 181.515788 -0.000007 0.000001 -12.703314 325.513811 166.349667 184.894054 -2.534599 -1.686409 5.195001 -2.267185 3.680385 11.577933 -4.144108 0.000006 0.000000 55.516768 -27.735264 150.139989 0.000018 0.000000 -10.116490 -58.718583 -7.582156 -6.867790 0.000005 -0.000001 -12.937803 41.465191 -8.248615 -9.246261 2.175580 0.064495 -2.662903 -374.287345 -4.969661 12.148928 0.000001 -0.000007 -18.585800 203.486239 -191.737221 -168.517788 -0.000008 0.000001 -18.979504 348.532805 16.419092 -16.704020 -2.092402 -0.058099 -2.581209 198.361903 -3.077570 -115.343467 0.000005 -0.000007 -18.665007 -890.749613 16.364032 -98.596089 0.000000 -0.000006 -18.566601 670.166359 -10.243826 -48.499828
46.767605 61.681999 45.031895 714.431394 4.339988 -8.564798 -0.153498 1.163103 7.852403 6.093100 -3.992564 -8.972476 -0.000005 0.000007 3.343303 -1.924754 -5.722540 -0.199559 -0.000002 0.000008 7.785503 -41.560311 -0.232288 20.995079 -0.000003 0.000010 2.173903 -6.172531 -5.033589 -5.987033 2.676296 -1.652387 4.938293 25.131230 -13.352517 -15.260294 4.298998 -0.000002 0.000009 -61.294705 -9.831474 -137.251736 -0.000004 -0.000017 -10.245100 210.700435 198.332205 181.702061 -0.000002 -0.000011 -12.703295 325.089738 166.344681 184.984786 -2.534591 -1.686391 5.194999 -2.122607 3.721111 11.682513 -4.144106 -0.000002 0.000000 54.838117 -27.718263 149.821921 0.000019 0.000002 -10.116496 -58.357464 -7.801325 -6.717933 0.000000 0.000006 -12.937794 40.548692 -8.345706 -9.347475 2.175595 0.064497 -2.662894 -374.182625 -4.969008 12.129651 -0.000001 0.000003 -18.585800 203.338966 -191.737521 -168.528675 -0.000007 0.000010 -18.979504 348.610287 16.358593 -16.714784 -2.092400 -0.058093 -2.581199 198.552247 -3.101321 -115.301748 0.000002 -0.000006 -18.664999 -890.685191 16.560878 -98.568222 -0.000002 -0.000006 -18.566605 670.290832 -10.251119 -48.387256
46.755199 61.673000 45.023598 714.399265 4.328834 -8.513169 -0.153505 1.163095 7.852410 6.118244 -3.990005 -9.065389 0.000009 -0.000001 3.343299 -1.889334 -5.651198 -0.193682 -0.000002 -0.000004 7.785493 -41.547320 -0.196920 21.045387 -0.000006 0.000010 2.173907 -6.260753 -5.065101 -5.974629 2.676298 -1.652408 4.938294 24.964241 -13.279372 -15.385725 4.299007 -0.000004 0.000003 -61.202211 -10.050991 -137.258116 -0.000010 0.000009 -10.245099 211.007247 198.331673 181.845276 0.000013 -0.000008 -12.703304 324.782380 166.300886 185.065137 -2.534592 -1.686404 5.194993 -2.041694 3.721961 11.783474 -4.144105 -0.000005 -0.000004 54.312332 -27.699364 149.494768 0.000004 -0.000008 -10.116497 -57.863921 -8.011860 -6.578527 0.000003 0.000016 -12.937808 39.645375 -8.402915 -9.434344 2.175591 0.064497 -2.662895 -374.095526 -4.936580 12.115619 0.000001 0.000005 -18.585800 203.376874 -191.769063 -168.585734 -0.000016 -0.000004 -18.979500 348.517123 16.305970 -16.727164 -2.092406 -0.058104 -2.581192 198.750022 -3.149984 -115.192261 -0.000004 -0.000016 -18.665007 -890.624484 16.702862 -98.503199 0.000002 -0.000005 -18.566601 670.383613 -10.272152 -48.263370
46.744102 61.659298 45.012394 714.344186 4.292334 -8.469768 -0.153501 1.163105 7.852402 6.161766 -3.965699 -9.144130 0.000012 0.000006 3.343306 -1.873279 -5.603451 -0.185269 0.000008 0.000011 7.785497 -41.562603 -0.147485 21.105134 0.000005 -0.000007 2.173901 -6.341969 -5.077796 -5.943826 2.676300 -1.652395 4.938294 24.768289 -13.153566 -15.533635 4.299009 0.000000 -0.000009 -61.168237 -10.248581 -137.207654 -0.000002 0.000008 -10.245100 210.993327 198.440642 181.803011 -0.000010 -0.000010 -12.703297 324.740606 166.359229 185.123357 -2.534600 -1.686393 5.194999 -2.000158 3.718717 11.863737 -4.144105 0.000006 -0.000004 53.872878 -27.660612 149.200770 -0.000003 -0.000009 -10.116500 -57.504852 -8.161757 -6.493798 0.000001 -0.000002 -12.937809 39.009095 -8.451109 -9.567748 2.175591 0.064498 -2.662894 -374.056840 -4.893737 12.119797 0.000001 -0.000002 -18.585804 203.557532 -191.822147 -168.666850 -0.000010 -0.000002 -18.979502 348.326561 16.244835 -16.739231 -2.092397 -0.058103 -2.581194 198.959654 -3.215032 -115.045726 0.000004 -0.000004 -18.665005 -890.562411 16.841011 -98.433859 -0.000001 -0.000002 -18.566607 670.470821 -10.319935 -48.182275
46.735001 61.640099 44.999596 714.262716 4.214794 -8.448842 -0.153499 1.163107 7.852406 6.227751 -3.887045 -9.197210 0.000007 0.000003 3.343300 -1.874363 -5.582373 -0.174930 0.000000 -0.000002 7.785508 -41.621052 -0.085260 21.185703 -0.000006 0.000004 2.173917 -6.382185 -5.067734 -5.916274 2.676294 -1.652399 4.938303 24.588000 -13.028578 -15.694141 4.299008 0.000006 0.000009 -61.187314 -10.512946 -137.169856 -0.000003 -0.000008 -10.245101 210.865083 198.493862 181.715749 0.000007 -0.000010 -12.703304 324.791396 166.317224 185.777703 -2.534596 -1.686403 5.195004 -2.050038 3.662193 11.947903 -4.144093 0.000001 -0.000002 53.553085 -27.581996 148.900105 0.000001 0.000000 -10.116488 -57.362572 -8.237480 -6.461981 0.000008 0.000007 -12.937803 38.675249 -8.452530 -9.640123 2.175588 0.064504 -2.662899 -374.081128 -4.824185 12.157071 -0.000001 0.000006 -18.585798 203.729762 -191.874453 -168.745725 -0.000005 -0.000007 -18.979504 348.201951 16.169397 -16.731112 -2.092394 -0.058094 -2.581196 199.166527 -3.308600 -114.863851 -0.000005 0.000010 -18.665009 -890.523889 16.938179 -98.331413 -0.000005 0.000000 -18.566599 670.520928 -10.365914 -48.109141
46.728004 61.615501 44.986988 714.199769 4.128975 -8.453916 -0.153497 1.163096 7.852407 6.272246 -3.828166 -9.220697 0.000007 0.000000 3.343301 -1.897871 -5.557967 -0.162768 -0.000002 0.000000 7.785507 -41.662508 0.025975 21.261390 -0.000000 0.000015 2.173913 -6.415673 -5.051430 -5.890097 2.676291 -1.652399 4.938301 24.378856 -12.902845 -15.930901 4.298998 0.000006 0.000001 -61.221178 -10.824953 -137.045997 0.000003 0.000010 -10.245096 210.637488 198.568885 181.544120 -0.000001 -0.000012 -12.703300 324.989854 166.281133 185.820761 -2.534598 -1.686400 5.195000 -2.134878 3.587356 12.066860 -4.144095 -0.000004 0.000004 53.311413 -27.512825 148.599781 0.000009 -0.000009 -10.116495 -57.526940 -8.237378 -6.494248 0.000004 0.000010 -12.937799 38.748032 -8.418871 -9.715851 2.175596 0.064496 -2.662893 -374.187296 -4.768516 12.218556 -0.000005 -0.000008 -18.585806 203.871380 -191.938151 -168.824354 -0.000008 -0.000007 -18.979504 348.147364 16.073937 -16.703666 -2.092393 -0.058101 -2.581192 199.336366 -3.393739 -114.650545 -0.000001 0.000007 -18.665001 -890.517168 17.094751 -98.199720 0.000002 -0.000002 -18.566603 670.667749 -10.276359 -47.847384
46.723804 61.584305 44.975098 714.143106 4.022726 -8.472305 -0.153499 1.163105 7.852411 6.304241 -3.778257 -9.235446 -0.000003 0.000009 3.343302 -1.953916 -5.526998 -0.150321 0.000011 -0.000001 7.785504 -41.709028 0.193449 21.342589 0.000001 0.000000 2.173905 -6.428301 -5.056669 -5.866272 2.676300 -1.652402 4.938300 24.176269 -12.812996 -16.224669 4.299013 0.000000 0.000001 -61.318802 -11.192578 -136.828988 -0.000007 0.000004 -10.245095 210.261404 198.655888 181.281144 0.000001 -0.000016 -12.703302 325.277896 166.268675 185.858258 -2.534597 -1.686402 5.194998 -2.231054 3.497508 12.245702 -4.144107 0.000000 -0.000004 53.129374 -27.482297 148.278639 0.000009 -0.000009 -10.116489 -57.817633 -8.202452 -6.560557 0.000002 0.000008 -12.937795 38.996815 -8.370626 -9.778100 2.175601 0.064498 -2.662899 -374.275406 -4.698168 12.262893 -0.000001 -0.000011 -18.585804 203.858757 -192.041164 -168.847686 -0.000004 -0.000003 -18.979500 348.194793 15.943253 -16.677331 -2.092386 -0.058100 -2.581194 199.481877 -3.478344 -114.382275 0.000000 0.000002 -18.665012 -890.529681 17.143532 -98.011917 0.000002 0.000001 -18.566601 670.760858 -10.147332 -47.584203
46.721500 61.547195 44.963902 714.080869 3.883993 -8.491705 -0.153502 1.163104 7.852406 6.334559 -3.709953 -9.266489 0.000003 0.000005 3.343305 -2.036248 -5.496407 -0.139839 0.000006 -0.000006 7.785498 -41.623074 0.340651 21.396946 0.000005 0.000002 2.173901 -6.524643 -5.004337 -5.849996 2.676304 -1.652402 4.938293 24.031063 -12.738721 -16.453693 4.299017 -0.000006 -0.000009 -61.530831 -11.567532 -136.634779 -0.000003 -0.000004 -10.245101 209.874160 198.743041 181.040543 0.000003 -0.000010 -12.703304 325.484687 166.288919 185.919388 -2.534595 -1.686402 5.194992 -2.249925 3.454982 12.428935 -4.144102 0.000003 -0.000004 52.948866 -27.467747 148.023914 0.000001 -0.000002 -10.116492 -58.270953 -8.117688 -6.629945 0.000007 0.000010 -12.937803 39.435269 -8.392701 -9.884410 2.175588 0.064499 -2.662897 -374.507250 -4.591534 12.315687 -0.000004 0.000007 -18.585800 203.690516 -192.087282 -168.810830 -0.000004 -0.000002 -18.979504 348.511468 15.775114 -16.646038 -2.092405 -0.058084 -2.581200 199.643615 -3.583355 -114.047207 0.000002 0.000006 -18.665005 -890.519627 17.348209 -97.853074 -0.000004 -0.000008 -18.566607 670.996910 -9.933759 -47.198431
